<svg width="27" height="16" viewBox="0 0 27 16" fill="none" xmlns="http://www.w3.org/2000/svg">
<path opacity="0.242188" fill-rule="evenodd" clip-rule="evenodd" d="M13.3102 15.2063H14.895C14.895 15.2063 15.3737 15.1547 15.6184 14.897C15.8433 14.6602 15.8361 14.2157 15.8361 14.2157C15.8361 14.2157 15.8051 12.1347 16.7919 11.8282C17.7651 11.5262 19.0145 13.8395 20.3387 14.7291C21.3401 15.402 22.101 15.2547 22.101 15.2547L25.642 15.2063C25.642 15.2063 27.4943 15.0944 26.616 13.6693C26.5441 13.5528 26.1043 12.615 23.9831 10.6882C21.7626 8.67148 22.0602 8.99776 24.7348 5.50933C26.3636 3.38488 27.0147 2.08796 26.8112 1.53252C26.6174 1.00331 25.4193 1.1431 25.4193 1.1431L21.4324 1.16723C21.4324 1.16723 21.1366 1.12784 20.9176 1.25613C20.7033 1.38158 20.5657 1.6747 20.5657 1.6747C20.5657 1.6747 19.9345 3.31854 19.0932 4.71678C17.3179 7.66677 16.6079 7.82292 16.3177 7.63945C15.6426 7.21247 15.8113 5.92452 15.8113 5.00926C15.8113 2.15028 16.2544 0.958261 14.9484 0.649703C14.515 0.547368 14.1958 0.479663 13.0874 0.468607C11.6647 0.454445 10.4609 0.472901 9.77915 0.799733C9.32556 1.0171 8.97561 1.50137 9.18887 1.52923C9.45245 1.56359 10.0491 1.68685 10.3654 2.10807C10.7741 2.65218 10.7598 3.87362 10.7598 3.87362C10.7598 3.87362 10.9946 7.23906 10.2115 7.65699C9.6742 7.94371 8.93696 7.35839 7.35416 4.68197C6.54334 3.31105 5.93093 1.79549 5.93093 1.79549C5.93093 1.79549 5.813 1.51233 5.60236 1.36075C5.3469 1.17709 4.98995 1.11889 4.98995 1.11889L1.20121 1.1431C1.20121 1.1431 0.63259 1.15864 0.423629 1.40068C0.237731 1.61613 0.408785 2.06119 0.408785 2.06119C0.408785 2.06119 3.37476 8.85202 6.73344 12.2742C9.81342 15.4122 13.3102 15.2063 13.3102 15.2063Z" fill="#57316F"/>
</svg>
