<?xml version="1.0" encoding="utf-8"?>
<!-- Generator: Adobe Illustrator 24.2.1, SVG Export Plug-In . SVG Version: 6.00 Build 0)  -->
<svg version="1.1" id="Layer_1" xmlns="http://www.w3.org/2000/svg" xmlns:xlink="http://www.w3.org/1999/xlink" x="0px" y="0px"
	 viewBox="0 0 195 140" style="enable-background:new 0 0 195 140;" xml:space="preserve">
<style type="text/css">
	.st0{fill:#1A1919;}
	.st1{fill-rule:evenodd;clip-rule:evenodd;fill:#1A1919;}
</style>
<g>
	<path class="st0" d="M37.4,109.2c-0.1,0.2-0.1,0.4-0.1,0.6c0,0.1,0.1,0.2,0.3,0.2c0.1,0,0.3-0.1,0.4-0.3c0.1-0.2,0.3-0.5,0.5-1
		l0.2-0.5H39l-0.3,1c-0.1,0.3-0.3,0.6-0.4,0.8c-0.2,0.2-0.4,0.3-0.6,0.4c-0.2,0.1-0.4,0.1-0.6,0.1c-0.4,0-0.6-0.1-0.8-0.3
		c-0.1-0.2-0.2-0.4-0.2-0.7c0-0.3,0.1-0.6,0.2-0.9l2.1-7c0.1-0.3,0.1-0.5,0-0.7c-0.1-0.2-0.4-0.2-0.8-0.2l0.1-0.2
		c0.5,0,1-0.1,1.4-0.1c0.4-0.1,0.8-0.2,1.2-0.4L37.4,109.2z M32.6,103.8l0.1-0.3h4l-0.1,0.3H32.6z M37.4,100.6c-0.2,0-0.4,0-0.5,0.1
		c-0.2,0.1-0.3,0.1-0.4,0.2c-0.3,0.2-0.5,0.4-0.7,0.8c-0.1,0.4-0.3,0.9-0.5,1.4l-2.6,9.4c-0.3,0-0.5,0-0.7,0.1
		c-0.2,0-0.5,0.1-0.7,0.1l2.5-9c0.2-0.6,0.3-1.1,0.6-1.5c0.2-0.4,0.5-0.8,0.8-1c0.3-0.3,0.7-0.5,1-0.6c0.4-0.1,0.8-0.2,1.2-0.2h0.8
		l0,0.2H37.4z M43.7,103.6c-0.3,0-0.5,0.1-0.7,0.3c-0.2,0.2-0.5,0.5-0.7,0.9c-0.2,0.4-0.4,0.8-0.6,1.3c-0.2,0.5-0.3,1-0.4,1.5
		c-0.1,0.5-0.1,1-0.1,1.5c0,0.4,0.1,0.6,0.2,0.8c0.1,0.2,0.3,0.2,0.5,0.2c0.3,0,0.5-0.1,0.7-0.3c0.2-0.2,0.5-0.5,0.7-0.9
		c0.2-0.4,0.4-0.8,0.6-1.3c0.2-0.5,0.3-1,0.4-1.5c0.1-0.5,0.1-1,0.1-1.5c0-0.4-0.1-0.7-0.2-0.8C44.1,103.7,43.9,103.6,43.7,103.6z
		 M39.8,108.4c0-0.5,0.1-1,0.2-1.6c0.2-0.6,0.4-1.1,0.7-1.7c0.3-0.5,0.7-1,1.2-1.3c0.5-0.3,1.1-0.5,1.7-0.5c0.6,0,1,0.2,1.4,0.5
		c0.3,0.3,0.5,0.9,0.5,1.6c0,0.5-0.1,1-0.3,1.6c-0.2,0.6-0.4,1.1-0.7,1.7c-0.3,0.5-0.7,0.9-1.2,1.3c-0.5,0.3-1.1,0.5-1.7,0.5
		c-0.6,0-1-0.2-1.4-0.5C40,109.6,39.8,109.1,39.8,108.4z M47.9,110.3h-1.4l1.6-5.6c0.1-0.3,0.1-0.5,0.1-0.6c0-0.1-0.1-0.2-0.2-0.2
		c-0.2,0-0.3,0.1-0.5,0.3c-0.1,0.2-0.3,0.5-0.5,1l-0.2,0.6h-0.2l0.3-1c0.2-0.5,0.4-0.9,0.7-1.1c0.3-0.2,0.6-0.3,0.9-0.3
		c0.4,0,0.6,0.1,0.7,0.3c0.1,0.2,0.2,0.4,0.1,0.7c0,0.3-0.1,0.6-0.1,0.8L47.9,110.3z M51.3,103.6c-0.2,0-0.4,0.1-0.6,0.2
		c-0.2,0.2-0.4,0.4-0.6,0.7c-0.2,0.3-0.4,0.7-0.7,1.2c-0.2,0.5-0.4,1.1-0.7,1.7c-0.2,0.6-0.4,1.4-0.7,2.2l0.3-1.7
		c0.3-0.9,0.5-1.6,0.8-2.2c0.2-0.6,0.5-1.1,0.7-1.4c0.2-0.4,0.5-0.6,0.7-0.8c0.3-0.2,0.5-0.2,0.8-0.2c0.3,0,0.5,0.1,0.6,0.2
		c0.2,0.2,0.2,0.4,0.2,0.6c0,0.3-0.1,0.6-0.3,0.8c-0.2,0.2-0.4,0.3-0.7,0.3c-0.2,0-0.3,0-0.4-0.1c-0.1-0.1-0.2-0.2-0.2-0.4
		c0-0.2,0.1-0.5,0.2-0.6c0.1-0.2,0.3-0.3,0.5-0.4C51.4,103.7,51.4,103.7,51.3,103.6C51.4,103.6,51.3,103.6,51.3,103.6z M53.7,109.9
		c0.2,0,0.4-0.1,0.6-0.3c0.2-0.2,0.5-0.5,0.7-0.9c0.2-0.4,0.5-0.9,0.7-1.4c0.2-0.5,0.4-1.1,0.5-1.7L56,107c-0.4,1.3-0.9,2.1-1.4,2.7
		c-0.5,0.5-1,0.8-1.5,0.8c-0.4,0-0.8-0.1-1-0.4c-0.2-0.3-0.3-0.7-0.3-1.2c0-0.4,0.1-0.9,0.2-1.4c0.1-0.5,0.3-1,0.6-1.5
		c0.3-0.5,0.6-0.9,0.9-1.3s0.7-0.7,1.1-0.9c0.4-0.2,0.8-0.4,1.2-0.4c0.3,0,0.5,0.1,0.7,0.4c0.2,0.3,0.2,0.7,0.1,1.2l-0.1,0.1
		c0.1-0.4,0-0.7-0.1-1c-0.1-0.3-0.3-0.4-0.5-0.4c-0.3,0-0.5,0.2-0.8,0.5c-0.3,0.3-0.6,0.8-0.9,1.3c-0.3,0.5-0.5,1.1-0.6,1.7
		c-0.2,0.6-0.2,1.2-0.2,1.8c0,0.3,0,0.6,0.1,0.7C53.4,109.9,53.5,109.9,53.7,109.9z M56.8,103.5c0.3,0,0.5,0,0.8-0.1
		s0.5-0.1,0.7-0.1l-1.7,5.8c0,0.1-0.1,0.2-0.1,0.3c0,0.1,0,0.2,0,0.3c0,0.1,0.1,0.1,0.2,0.1c0.2,0,0.3-0.1,0.5-0.2
		c0.2-0.2,0.3-0.5,0.5-1l0.2-0.5h0.2l-0.3,1c-0.2,0.5-0.4,0.9-0.7,1.1c-0.3,0.2-0.6,0.3-0.8,0.3c-0.4,0-0.7-0.1-0.8-0.4
		c-0.1-0.2-0.2-0.4-0.1-0.7c0-0.3,0.1-0.6,0.2-0.9L56.8,103.5z M60.3,109.2c-0.1,0.2-0.1,0.4-0.1,0.6c0,0.1,0.1,0.2,0.3,0.2
		c0.1,0,0.3-0.1,0.4-0.3c0.1-0.2,0.3-0.5,0.5-1l0.2-0.5h0.2l-0.3,1c-0.1,0.3-0.3,0.6-0.4,0.8c-0.2,0.2-0.4,0.3-0.6,0.4
		c-0.2,0.1-0.4,0.1-0.6,0.1c-0.4,0-0.6-0.1-0.8-0.3c-0.1-0.2-0.2-0.4-0.2-0.7c0-0.3,0.1-0.6,0.2-0.9l2.1-7c0.1-0.3,0.1-0.5,0-0.7
		c-0.1-0.1-0.4-0.2-0.8-0.2l0.1-0.3c0.5,0,1-0.1,1.4-0.1c0.4-0.1,0.8-0.2,1.2-0.4L60.3,109.2z M70.9,109.2c-0.1,0.2-0.1,0.4-0.1,0.5
		c0,0.1,0.1,0.2,0.3,0.2c0.2,0,0.3-0.1,0.4-0.3c0.1-0.2,0.3-0.5,0.5-1l0.2-0.5h0.2l-0.3,1c-0.2,0.5-0.4,0.9-0.7,1.1
		c-0.3,0.2-0.6,0.3-0.9,0.3c-0.5,0-0.8-0.2-0.9-0.7c0-0.1,0-0.3,0-0.5c0-0.2,0.1-0.4,0.2-0.7l1.9-7c0.1-0.3,0.1-0.5,0-0.7
		c-0.1-0.1-0.4-0.2-0.8-0.2l0.1-0.3c0.5,0,1-0.1,1.4-0.1c0.4-0.1,0.8-0.2,1.2-0.4L70.9,109.2z M67.9,110c0.2,0,0.4-0.1,0.7-0.4
		c0.3-0.2,0.5-0.6,0.8-1c0.3-0.4,0.5-0.9,0.7-1.5c0.2-0.6,0.4-1.2,0.6-1.8l-0.2,1.4c-0.3,0.9-0.6,1.6-1,2.1c-0.3,0.5-0.6,0.9-1,1.2
		c-0.3,0.2-0.7,0.4-1.1,0.4c-0.4,0-0.8-0.1-1-0.4c-0.3-0.3-0.4-0.7-0.4-1.3c0-0.4,0.1-0.9,0.2-1.3c0.1-0.5,0.3-1,0.6-1.4
		c0.3-0.5,0.6-0.9,0.9-1.3c0.4-0.4,0.8-0.7,1.2-0.9c0.4-0.2,0.9-0.4,1.4-0.4c0.2,0,0.4,0.1,0.6,0.2c0.2,0.1,0.3,0.3,0.3,0.6
		l-0.1,0.3c0-0.3-0.1-0.5-0.2-0.6c-0.1-0.1-0.3-0.2-0.4-0.2c-0.4,0-0.7,0.2-1.1,0.5c-0.3,0.3-0.7,0.8-0.9,1.3
		c-0.3,0.5-0.5,1.1-0.7,1.7c-0.2,0.6-0.2,1.2-0.2,1.7c0,0.4,0,0.6,0.1,0.8S67.7,110,67.9,110z M74.4,107.3c0.4-0.2,0.9-0.3,1.2-0.5
		c0.4-0.2,0.7-0.3,0.9-0.5c0.3-0.3,0.6-0.6,0.8-1c0.2-0.4,0.3-0.8,0.3-1.2c0-0.2,0-0.4-0.1-0.4c0-0.1-0.1-0.1-0.2-0.1
		c-0.3,0-0.5,0.1-0.9,0.4c-0.3,0.3-0.6,0.7-0.9,1.2c-0.3,0.5-0.5,1-0.7,1.6c-0.2,0.6-0.3,1.2-0.3,1.8c0,0.5,0.1,0.8,0.2,1
		c0.2,0.2,0.4,0.3,0.7,0.3c0.3,0,0.6-0.1,1-0.3c0.3-0.2,0.7-0.5,1-1l0.2,0.1c-0.2,0.3-0.4,0.6-0.7,0.8c-0.3,0.3-0.6,0.5-1,0.7
		c-0.3,0.2-0.7,0.2-1.1,0.2c-0.6,0-1-0.2-1.3-0.5c-0.3-0.3-0.5-0.8-0.5-1.4c0-0.4,0.1-0.8,0.2-1.3c0.1-0.5,0.4-1,0.6-1.4
		c0.3-0.5,0.6-0.9,1-1.3c0.4-0.4,0.8-0.7,1.2-0.9c0.5-0.2,0.9-0.3,1.4-0.3c0.3,0,0.6,0.1,0.8,0.2c0.2,0.1,0.3,0.4,0.3,0.7
		c0,0.3-0.1,0.7-0.3,1c-0.2,0.3-0.5,0.6-0.8,0.8c-0.3,0.2-0.7,0.5-1.1,0.7c-0.4,0.2-0.8,0.4-1.2,0.5c-0.4,0.1-0.7,0.3-1,0.3
		L74.4,107.3z M79.8,110.1c0.1,0,0.1,0.1,0.2,0.1c0.1,0,0.2,0,0.4,0c0.4,0,0.7-0.1,0.9-0.3c0.2-0.2,0.4-0.5,0.4-1
		c0-0.3-0.1-0.5-0.2-0.8c-0.1-0.3-0.3-0.6-0.5-0.9c-0.2-0.3-0.4-0.6-0.6-0.9c-0.2-0.3-0.3-0.6-0.3-1c0-0.6,0.2-1,0.6-1.4
		c0.4-0.3,0.9-0.5,1.5-0.5c0.3,0,0.5,0,0.8,0.1c0.3,0.1,0.5,0.2,0.7,0.4c0.2,0.2,0.3,0.4,0.3,0.8c0,0.1-0.1,0.3-0.2,0.5
		c-0.1,0.2-0.3,0.3-0.5,0.3c-0.2,0-0.3-0.1-0.4-0.2c-0.1-0.1-0.2-0.3-0.2-0.5c0-0.2,0-0.4,0.1-0.5c0.1-0.2,0.2-0.3,0.3-0.4
		c-0.1-0.1-0.3-0.1-0.6-0.1c-0.3,0-0.6,0.1-0.8,0.3c-0.2,0.2-0.3,0.5-0.3,0.9c0,0.3,0.1,0.6,0.2,0.8c0.1,0.2,0.3,0.5,0.6,0.9
		c0.2,0.4,0.4,0.7,0.6,1c0.1,0.3,0.2,0.6,0.2,1c0,0.4-0.1,0.7-0.3,1.1c-0.2,0.3-0.5,0.5-0.8,0.7c-0.3,0.2-0.7,0.3-1.2,0.3
		c-0.3,0-0.6,0-0.9-0.1c-0.3-0.1-0.5-0.2-0.7-0.4c-0.2-0.2-0.3-0.5-0.3-0.8c0-0.2,0-0.3,0.1-0.5c0.1-0.2,0.2-0.2,0.4-0.2
		c0.2,0,0.4,0.1,0.5,0.3c0.1,0.2,0.2,0.4,0.2,0.6c0,0.2,0,0.3-0.1,0.5C79.8,109.9,79.8,110,79.8,110.1z M86.5,101.2
		c0-0.3,0.2-0.5,0.4-0.7c0.2-0.2,0.5-0.3,0.7-0.3c0.3,0,0.5,0.1,0.6,0.2c0.1,0.2,0.2,0.4,0.2,0.6c0,0.3-0.2,0.5-0.4,0.7
		c-0.2,0.2-0.5,0.3-0.7,0.3c-0.3,0-0.5-0.1-0.6-0.2C86.5,101.6,86.5,101.4,86.5,101.2z M86.1,104.6c0.2-0.5,0.1-0.8-0.2-0.8
		c-0.2,0-0.4,0.1-0.5,0.3c-0.1,0.2-0.3,0.5-0.5,0.9l-0.2,0.6h-0.2l0.3-1c0.2-0.5,0.5-0.9,0.8-1.1c0.3-0.2,0.6-0.3,0.9-0.3
		c0.4,0,0.7,0.1,0.8,0.3c0.1,0.2,0.2,0.4,0.2,0.7c0,0.3-0.1,0.6-0.2,0.8l-1.4,4c-0.1,0.2-0.1,0.4-0.1,0.6c0,0.1,0.1,0.2,0.3,0.2
		c0.2,0,0.3-0.1,0.5-0.2c0.1-0.2,0.3-0.5,0.5-1l0.2-0.5h0.2l-0.3,1c-0.2,0.5-0.4,0.9-0.7,1.1s-0.6,0.3-0.9,0.3
		c-0.4,0-0.6-0.1-0.8-0.2c-0.1-0.2-0.2-0.4-0.2-0.7c0-0.3,0.1-0.6,0.2-1L86.1,104.6z M91,107.3l0.4,0c-0.5,0.3-0.9,0.5-1.2,0.7
		c-0.3,0.2-0.5,0.3-0.5,0.5c0,0.1,0.1,0.2,0.2,0.2c0.1,0.1,0.3,0.1,0.6,0.2l1,0.3c0.3,0.1,0.5,0.2,0.7,0.3c0.2,0.1,0.4,0.2,0.5,0.4
		c0.1,0.1,0.2,0.3,0.2,0.6c0,0.3-0.1,0.5-0.2,0.8c-0.2,0.3-0.4,0.5-0.7,0.8c-0.3,0.2-0.7,0.4-1.2,0.6c-0.5,0.2-1,0.2-1.7,0.2
		c-0.5,0-0.8,0-1.2-0.1c-0.3-0.1-0.6-0.2-0.7-0.3c-0.2-0.1-0.3-0.3-0.3-0.5c0-0.1,0.1-0.3,0.2-0.4c0.1-0.1,0.2-0.3,0.4-0.4
		c0.2-0.1,0.4-0.2,0.6-0.4c0.2-0.1,0.5-0.2,0.8-0.2l0.1,0.2c-0.3,0.2-0.5,0.3-0.7,0.5c-0.1,0.2-0.2,0.4-0.2,0.6
		c0,0.3,0.1,0.5,0.3,0.7c0.2,0.1,0.5,0.2,0.9,0.2c0.4,0,0.8-0.1,1.1-0.2c0.4-0.1,0.7-0.3,1-0.6c0.3-0.2,0.4-0.5,0.4-0.8
		c0-0.1,0-0.2-0.1-0.3c-0.1-0.1-0.2-0.1-0.4-0.1l-2-0.5c-0.2-0.1-0.4-0.1-0.5-0.3c-0.1-0.1-0.2-0.3-0.2-0.5c0-0.2,0.1-0.4,0.2-0.6
		c0.2-0.2,0.4-0.4,0.8-0.6C89.9,107.8,90.4,107.6,91,107.3z M91.6,103.6c-0.3,0-0.6,0.1-0.8,0.3c-0.2,0.2-0.3,0.5-0.5,0.8
		c-0.1,0.3-0.2,0.6-0.2,1c0,0.3-0.1,0.6-0.1,0.7c0,0.3,0.1,0.5,0.2,0.6c0.1,0.1,0.3,0.2,0.4,0.2c0.3,0,0.5-0.1,0.7-0.3
		c0.2-0.2,0.3-0.4,0.4-0.7c0.1-0.3,0.2-0.6,0.2-0.9s0.1-0.6,0.1-0.8c0-0.3,0-0.5-0.1-0.7C92,103.7,91.9,103.6,91.6,103.6z
		 M91.7,103.3c0.5,0,1,0.1,1.3,0.4c0.3,0.2,0.5,0.6,0.5,1.1c0,0.4-0.1,0.8-0.4,1.2c-0.2,0.4-0.6,0.7-1,1c-0.4,0.3-1,0.4-1.6,0.4
		c-0.5,0-0.9-0.1-1.3-0.3c-0.3-0.2-0.5-0.6-0.5-1.1c0-0.3,0.1-0.5,0.2-0.8c0.1-0.3,0.3-0.6,0.5-0.9c0.2-0.3,0.5-0.5,0.9-0.7
		C90.8,103.4,91.2,103.3,91.7,103.3z M92.7,104l-0.2-0.1c0.1-0.3,0.3-0.6,0.6-0.8c0.3-0.2,0.6-0.3,0.9-0.3c0.2,0,0.4,0.1,0.6,0.2
		c0.1,0.1,0.2,0.3,0.2,0.6c0,0.2-0.1,0.4-0.2,0.6c-0.1,0.1-0.3,0.2-0.4,0.2c-0.1,0-0.3,0-0.4-0.1c-0.1-0.1-0.2-0.2-0.2-0.5
		c0-0.2,0-0.5,0.2-0.8l0.1,0c-0.4,0.1-0.6,0.3-0.8,0.4C93,103.6,92.8,103.8,92.7,104z M95.9,110.3h-1.4l1.6-5.6
		c0-0.1,0.1-0.2,0.1-0.3c0-0.1,0-0.2,0-0.3c0-0.1-0.1-0.1-0.2-0.1c-0.2,0-0.3,0.1-0.5,0.3c-0.1,0.2-0.3,0.5-0.5,1l-0.2,0.6h-0.2
		l0.3-1c0.2-0.5,0.4-0.9,0.7-1.1c0.3-0.2,0.6-0.3,0.9-0.3c0.4,0,0.6,0.1,0.7,0.3c0.1,0.2,0.2,0.4,0.1,0.7s-0.1,0.6-0.1,0.8
		L95.9,110.3z M96.4,107.7c0.3-0.8,0.6-1.5,0.9-2.1c0.3-0.6,0.6-1,0.9-1.4s0.6-0.6,0.9-0.7c0.3-0.1,0.6-0.2,0.9-0.2
		c0.4,0,0.7,0.1,0.9,0.3c0.2,0.2,0.2,0.4,0.2,0.7c0,0.3-0.1,0.6-0.2,0.9l-1.3,3.8c-0.1,0.2-0.1,0.4-0.1,0.6c0,0.1,0.1,0.2,0.3,0.2
		c0.1,0,0.3-0.1,0.4-0.2c0.2-0.2,0.3-0.5,0.5-1l0.2-0.5h0.2l-0.3,1c-0.2,0.6-0.4,0.9-0.8,1.1c-0.3,0.2-0.6,0.3-0.9,0.3
		c-0.4,0-0.7-0.1-0.9-0.4c-0.1-0.2-0.1-0.4-0.1-0.6c0-0.3,0.1-0.6,0.2-0.9l1.2-3.7c0-0.1,0.1-0.3,0.1-0.4c0-0.2,0-0.3,0-0.4
		c0-0.1-0.1-0.2-0.3-0.2c-0.2,0-0.5,0.2-0.8,0.5c-0.3,0.3-0.6,0.7-0.9,1.2c-0.3,0.5-0.6,1.1-0.9,1.8c-0.3,0.7-0.5,1.4-0.8,2.2
		L96.4,107.7z M107.1,109.9c0.2,0,0.4-0.1,0.6-0.3c0.2-0.2,0.5-0.5,0.7-0.9c0.2-0.4,0.5-0.9,0.7-1.4c0.2-0.5,0.4-1.1,0.5-1.7
		l-0.2,1.4c-0.4,1.3-0.9,2.1-1.4,2.7c-0.5,0.5-1,0.8-1.5,0.8c-0.4,0-0.8-0.1-1-0.4c-0.2-0.3-0.3-0.7-0.3-1.2c0-0.4,0.1-0.9,0.2-1.4
		c0.1-0.5,0.3-1,0.6-1.5c0.3-0.5,0.6-0.9,0.9-1.3s0.7-0.7,1.1-0.9c0.4-0.2,0.8-0.4,1.2-0.4c0.3,0,0.5,0.1,0.7,0.4
		c0.2,0.3,0.2,0.7,0.1,1.2l-0.1,0.1c0.1-0.4,0-0.7-0.1-1c-0.1-0.3-0.3-0.4-0.5-0.4c-0.3,0-0.5,0.2-0.8,0.5c-0.3,0.3-0.6,0.8-0.9,1.3
		c-0.3,0.5-0.5,1.1-0.6,1.7c-0.2,0.6-0.2,1.2-0.2,1.8c0,0.3,0,0.6,0.1,0.7C106.9,109.9,107,109.9,107.1,109.9z M110.2,103.5
		c0.3,0,0.5,0,0.8-0.1c0.2,0,0.5-0.1,0.7-0.1l-1.7,5.8c0,0.1-0.1,0.2-0.1,0.3c0,0.1,0,0.2,0,0.3c0,0.1,0.1,0.1,0.2,0.1
		c0.2,0,0.3-0.1,0.5-0.2c0.2-0.2,0.3-0.5,0.5-1l0.2-0.5h0.2l-0.3,1c-0.2,0.5-0.4,0.9-0.7,1.1c-0.3,0.2-0.6,0.3-0.8,0.3
		c-0.4,0-0.7-0.1-0.8-0.4c-0.1-0.2-0.2-0.4-0.1-0.7c0-0.3,0.1-0.6,0.2-0.9L110.2,103.5z M114,110.3h-1.4l1.6-5.6
		c0-0.1,0.1-0.2,0.1-0.3c0-0.1,0-0.2,0-0.3c0-0.1-0.1-0.1-0.2-0.1c-0.2,0-0.3,0.1-0.5,0.3c-0.1,0.2-0.3,0.5-0.5,1l-0.2,0.6h-0.2
		l0.3-1c0.2-0.5,0.4-0.9,0.7-1.1c0.3-0.2,0.6-0.3,0.9-0.3c0.4,0,0.6,0.1,0.7,0.3c0.1,0.2,0.2,0.4,0.1,0.7s-0.1,0.6-0.1,0.8
		L114,110.3z M114.5,107.7c0.3-0.8,0.6-1.5,0.9-2.1c0.3-0.6,0.6-1,0.9-1.4c0.3-0.3,0.6-0.6,0.9-0.7c0.3-0.1,0.6-0.2,0.9-0.2
		c0.4,0,0.7,0.1,0.9,0.3c0.2,0.2,0.2,0.4,0.2,0.7c0,0.3-0.1,0.6-0.2,0.9l-1.3,3.8c-0.1,0.2-0.1,0.4-0.1,0.6c0,0.1,0.1,0.2,0.3,0.2
		c0.1,0,0.3-0.1,0.4-0.2c0.2-0.2,0.3-0.5,0.5-1l0.2-0.5h0.2l-0.3,1c-0.2,0.6-0.4,0.9-0.8,1.1c-0.3,0.2-0.6,0.3-0.9,0.3
		c-0.4,0-0.7-0.1-0.9-0.4c-0.1-0.2-0.1-0.4-0.1-0.6c0-0.3,0.1-0.6,0.2-0.9l1.2-3.7c0-0.1,0.1-0.3,0.1-0.4c0-0.2,0-0.3,0-0.4
		c0-0.1-0.1-0.2-0.3-0.2c-0.2,0-0.5,0.2-0.8,0.5c-0.3,0.3-0.6,0.7-0.9,1.2c-0.3,0.5-0.6,1.1-0.9,1.8c-0.3,0.7-0.5,1.4-0.8,2.2
		L114.5,107.7z M125,109.2c-0.1,0.2-0.1,0.4-0.1,0.5c0,0.1,0.1,0.2,0.3,0.2c0.2,0,0.3-0.1,0.4-0.3c0.1-0.2,0.3-0.5,0.5-1l0.2-0.5
		h0.2l-0.3,1c-0.2,0.5-0.4,0.9-0.7,1.1c-0.3,0.2-0.6,0.3-0.9,0.3c-0.5,0-0.8-0.2-0.9-0.7c0-0.1,0-0.3,0-0.5c0-0.2,0.1-0.4,0.2-0.7
		l1.9-7c0.1-0.3,0.1-0.5,0-0.7c-0.1-0.1-0.4-0.2-0.8-0.2l0.1-0.3c0.5,0,1-0.1,1.4-0.1c0.4-0.1,0.8-0.2,1.2-0.4L125,109.2z M122,110
		c0.2,0,0.4-0.1,0.7-0.4c0.3-0.2,0.5-0.6,0.8-1c0.3-0.4,0.5-0.9,0.7-1.5c0.2-0.6,0.4-1.2,0.6-1.8l-0.2,1.4c-0.3,0.9-0.6,1.6-1,2.1
		c-0.3,0.5-0.6,0.9-1,1.2c-0.3,0.2-0.7,0.4-1.1,0.4c-0.4,0-0.8-0.1-1-0.4c-0.3-0.3-0.4-0.7-0.4-1.3c0-0.4,0.1-0.9,0.2-1.3
		c0.1-0.5,0.3-1,0.6-1.4c0.3-0.5,0.6-0.9,0.9-1.3c0.4-0.4,0.8-0.7,1.2-0.9c0.4-0.2,0.9-0.4,1.4-0.4c0.2,0,0.4,0.1,0.6,0.2
		c0.2,0.1,0.3,0.3,0.3,0.6l-0.1,0.3c0-0.3-0.1-0.5-0.2-0.6c-0.1-0.1-0.3-0.2-0.4-0.2c-0.4,0-0.7,0.2-1.1,0.5
		c-0.3,0.3-0.7,0.8-0.9,1.3c-0.3,0.5-0.5,1.1-0.7,1.7c-0.2,0.6-0.2,1.2-0.2,1.7c0,0.4,0,0.6,0.1,0.8S121.8,110,122,110z
		 M135.6,109.2c-0.1,0.2-0.1,0.4-0.1,0.5c0,0.1,0.1,0.2,0.3,0.2c0.2,0,0.3-0.1,0.4-0.3c0.1-0.2,0.3-0.5,0.5-1l0.2-0.5h0.2l-0.3,1
		c-0.2,0.5-0.4,0.9-0.7,1.1c-0.3,0.2-0.6,0.3-0.9,0.3c-0.5,0-0.8-0.2-0.9-0.7c0-0.1,0-0.3,0-0.5c0-0.2,0.1-0.4,0.2-0.7l1.9-7
		c0.1-0.3,0.1-0.5,0-0.7c-0.1-0.1-0.4-0.2-0.8-0.2l0.1-0.3c0.5,0,1-0.1,1.4-0.1c0.4-0.1,0.8-0.2,1.2-0.4L135.6,109.2z M132.6,110
		c0.2,0,0.4-0.1,0.7-0.4c0.3-0.2,0.5-0.6,0.8-1c0.3-0.4,0.5-0.9,0.7-1.5c0.2-0.6,0.4-1.2,0.6-1.8l-0.2,1.4c-0.3,0.9-0.6,1.6-1,2.1
		c-0.3,0.5-0.6,0.9-1,1.2c-0.3,0.2-0.7,0.4-1.1,0.4c-0.4,0-0.8-0.1-1-0.4c-0.3-0.3-0.4-0.7-0.4-1.3c0-0.4,0.1-0.9,0.2-1.3
		c0.1-0.5,0.3-1,0.6-1.4c0.3-0.5,0.6-0.9,0.9-1.3c0.4-0.4,0.8-0.7,1.2-0.9c0.4-0.2,0.9-0.4,1.4-0.4c0.2,0,0.4,0.1,0.6,0.2
		c0.2,0.1,0.3,0.3,0.3,0.6l-0.1,0.3c0-0.3-0.1-0.5-0.2-0.6c-0.1-0.1-0.3-0.2-0.4-0.2c-0.4,0-0.7,0.2-1.1,0.5
		c-0.3,0.3-0.7,0.8-0.9,1.3c-0.3,0.5-0.5,1.1-0.7,1.7c-0.2,0.6-0.2,1.2-0.2,1.7c0,0.4,0,0.6,0.1,0.8
		C132.3,109.9,132.4,110,132.6,110z M139.1,107.3c0.4-0.2,0.9-0.3,1.2-0.5c0.4-0.2,0.7-0.3,0.9-0.5c0.3-0.3,0.6-0.6,0.8-1
		c0.2-0.4,0.3-0.8,0.3-1.2c0-0.2,0-0.4-0.1-0.4c0-0.1-0.1-0.1-0.2-0.1c-0.3,0-0.5,0.1-0.9,0.4c-0.3,0.3-0.6,0.7-0.9,1.2
		c-0.3,0.5-0.5,1-0.7,1.6c-0.2,0.6-0.3,1.2-0.3,1.8c0,0.5,0.1,0.8,0.2,1c0.2,0.2,0.4,0.3,0.7,0.3c0.3,0,0.6-0.1,1-0.3
		c0.3-0.2,0.7-0.5,1-1l0.2,0.1c-0.2,0.3-0.4,0.6-0.7,0.8c-0.3,0.3-0.6,0.5-1,0.7c-0.3,0.2-0.7,0.2-1.1,0.2c-0.6,0-1-0.2-1.3-0.5
		c-0.3-0.3-0.5-0.8-0.5-1.4c0-0.4,0.1-0.8,0.2-1.3c0.1-0.5,0.4-1,0.6-1.4c0.3-0.5,0.6-0.9,1-1.3c0.4-0.4,0.8-0.7,1.2-0.9
		c0.5-0.2,0.9-0.3,1.4-0.3c0.3,0,0.6,0.1,0.8,0.2c0.2,0.1,0.3,0.4,0.3,0.7c0,0.3-0.1,0.7-0.3,1c-0.2,0.3-0.5,0.6-0.8,0.8
		s-0.7,0.5-1.1,0.7c-0.4,0.2-0.8,0.4-1.2,0.5c-0.4,0.1-0.7,0.3-1,0.3L139.1,107.3z M148,103.6c-0.3,0-0.7,0.1-1,0.4
		c-0.3,0.3-0.6,0.6-0.9,1.1c-0.3,0.5-0.5,1-0.6,1.6c-0.2,0.6-0.2,1.2-0.2,1.9c0,0.4,0.1,0.8,0.3,1c0.2,0.2,0.4,0.3,0.7,0.3
		c0.3,0,0.6-0.1,0.9-0.3c0.3-0.2,0.6-0.5,1-1l0.3,0.1c-0.2,0.3-0.4,0.6-0.7,0.8c-0.3,0.3-0.6,0.5-0.9,0.7c-0.3,0.2-0.7,0.2-1.1,0.2
		c-0.6,0-1-0.2-1.3-0.5c-0.3-0.3-0.5-0.8-0.5-1.5c0-0.5,0.1-1.1,0.3-1.7s0.5-1.2,0.8-1.7c0.4-0.5,0.8-1,1.3-1.3
		c0.5-0.3,1.1-0.5,1.7-0.5c0.4,0,0.8,0.1,1,0.3c0.3,0.2,0.4,0.5,0.4,0.9c0,0.2,0,0.4-0.1,0.6c-0.1,0.2-0.2,0.3-0.4,0.5
		c-0.2,0.1-0.3,0.2-0.6,0.2c-0.2,0-0.3-0.1-0.4-0.2c-0.1-0.1-0.2-0.3-0.2-0.4c0-0.3,0.1-0.5,0.3-0.7c0.2-0.2,0.5-0.3,0.7-0.4
		c-0.1-0.1-0.2-0.2-0.3-0.2C148.4,103.6,148.2,103.6,148,103.6z M153.5,103.6c-0.3,0-0.5,0.1-0.7,0.3c-0.2,0.2-0.5,0.5-0.7,0.9
		c-0.2,0.4-0.4,0.8-0.6,1.3c-0.2,0.5-0.3,1-0.4,1.5c-0.1,0.5-0.1,1-0.1,1.5c0,0.4,0.1,0.6,0.2,0.8c0.1,0.2,0.3,0.2,0.5,0.2
		c0.3,0,0.5-0.1,0.7-0.3c0.2-0.2,0.5-0.5,0.7-0.9c0.2-0.4,0.4-0.8,0.6-1.3c0.2-0.5,0.3-1,0.4-1.5c0.1-0.5,0.1-1,0.1-1.5
		c0-0.4-0.1-0.7-0.2-0.8C153.9,103.7,153.7,103.6,153.5,103.6z M149.6,108.4c0-0.5,0.1-1,0.2-1.6c0.2-0.6,0.4-1.1,0.7-1.7
		c0.3-0.5,0.7-1,1.2-1.3c0.5-0.3,1.1-0.5,1.7-0.5c0.6,0,1,0.2,1.4,0.5c0.3,0.3,0.5,0.9,0.5,1.6c0,0.5-0.1,1-0.3,1.6
		c-0.2,0.6-0.4,1.1-0.7,1.7c-0.3,0.5-0.7,0.9-1.2,1.3c-0.5,0.3-1.1,0.5-1.7,0.5c-0.6,0-1-0.2-1.4-0.5
		C149.8,109.6,149.6,109.1,149.6,108.4z M157.7,110.3h-1.4l1.6-5.6c0.1-0.3,0.1-0.5,0.1-0.6c0-0.1-0.1-0.2-0.2-0.2
		c-0.2,0-0.3,0.1-0.5,0.3s-0.3,0.5-0.5,1l-0.2,0.6h-0.2l0.3-1c0.2-0.5,0.4-0.9,0.7-1.1c0.3-0.2,0.6-0.3,0.9-0.3
		c0.4,0,0.6,0.1,0.7,0.3c0.1,0.2,0.2,0.4,0.1,0.7c0,0.3-0.1,0.6-0.1,0.8L157.7,110.3z M161.1,103.6c-0.2,0-0.4,0.1-0.6,0.2
		c-0.2,0.2-0.4,0.4-0.6,0.7s-0.4,0.7-0.7,1.2c-0.2,0.5-0.4,1.1-0.7,1.7c-0.2,0.6-0.4,1.4-0.7,2.2l0.3-1.7c0.3-0.9,0.5-1.6,0.8-2.2
		c0.2-0.6,0.5-1.1,0.7-1.4c0.2-0.4,0.5-0.6,0.7-0.8c0.3-0.2,0.5-0.2,0.8-0.2c0.3,0,0.5,0.1,0.6,0.2c0.2,0.2,0.2,0.4,0.2,0.6
		c0,0.3-0.1,0.6-0.3,0.8c-0.2,0.2-0.4,0.3-0.7,0.3c-0.2,0-0.3,0-0.4-0.1c-0.1-0.1-0.2-0.2-0.2-0.4c0-0.2,0.1-0.5,0.2-0.6
		c0.1-0.2,0.3-0.3,0.5-0.4C161.2,103.7,161.2,103.7,161.1,103.6C161.2,103.6,161.1,103.6,161.1,103.6z"/>
	<path class="st1" d="M12.6,89.6c-0.6,0.1-1.1,0.7-1,1.4c0.1,0.6,0.7,1.1,1.4,1c0.6-0.1,1.1-0.7,1-1.4C13.8,90,13.2,89.5,12.6,89.6z
		"/>
	<path class="st1" d="M18,88.7c-0.6,0.1-1.1,0.7-1,1.4c0.1,0.6,0.7,1.1,1.3,1c0.6-0.1,1.1-0.7,1-1.4C19.2,89.1,18.6,88.6,18,88.7z"
		/>
	<path class="st1" d="M23.4,87.9c-0.6,0.1-1.1,0.7-1,1.4c0.1,0.6,0.7,1.1,1.3,1c0.6-0.1,1.1-0.7,1-1.4C24.6,88.2,24,87.8,23.4,87.9z
		"/>
	<path class="st1" d="M28.8,87.1c-0.6,0.1-1.1,0.7-1,1.3c0.1,0.6,0.7,1.1,1.3,1c0.6-0.1,1.1-0.7,1-1.3C30,87.5,29.4,87,28.8,87.1z"
		/>
	<path class="st1" d="M34.5,88.8c0.6-0.1,1.1-0.7,1-1.3c-0.1-0.6-0.7-1.1-1.3-1c-0.6,0.1-1.1,0.7-1,1.3
		C33.2,88.4,33.8,88.8,34.5,88.8z"/>
	<path class="st1" d="M39.6,85.7c-0.6,0.1-1.1,0.7-1,1.3c0.1,0.6,0.7,1.1,1.3,1c0.6-0.1,1.1-0.7,1-1.3
		C40.8,86.1,40.2,85.6,39.6,85.7z"/>
	<path class="st1" d="M44,86.4c0.1,0.6,0.7,1.1,1.3,1.1c0.6-0.1,1.1-0.7,1.1-1.3c-0.1-0.6-0.7-1.1-1.3-1.1
		C44.4,85.2,43.9,85.8,44,86.4z"/>
	<path class="st1" d="M51.7,85.6c-0.1-0.6-0.6-1.1-1.3-1.1c-0.6,0.1-1.1,0.7-1.1,1.3c0.1,0.6,0.6,1.1,1.3,1.1
		C51.3,86.9,51.8,86.3,51.7,85.6z"/>
	<path class="st1" d="M54.8,85.4c0.1,0.6,0.6,1.1,1.3,1.1c0.6-0.1,1.1-0.6,1.1-1.3c-0.1-0.6-0.6-1.1-1.3-1.1
		C55.3,84.1,54.8,84.7,54.8,85.4z"/>
	<path class="st1" d="M60.3,84.9c0,0.6,0.6,1.2,1.3,1.1c0.6,0,1.1-0.6,1.1-1.3c0-0.6-0.6-1.2-1.3-1.1C60.7,83.7,60.2,84.3,60.3,84.9
		z"/>
	<path class="st1" d="M65.7,84.5c0,0.6,0.6,1.2,1.2,1.1c0.6,0,1.1-0.6,1.1-1.3c0-0.6-0.6-1.2-1.2-1.1C66.1,83.3,65.6,83.9,65.7,84.5
		z"/>
	<path class="st1" d="M72.4,85.3c0.6,0,1.1-0.6,1.1-1.3c0-0.6-0.6-1.2-1.2-1.1c-0.6,0-1.1,0.6-1.1,1.3
		C71.1,84.9,71.7,85.4,72.4,85.3z"/>
	<path class="st1" d="M78.9,83.8c0-0.6-0.6-1.2-1.2-1.1c-0.6,0-1.2,0.6-1.1,1.2c0,0.6,0.6,1.2,1.2,1.1C78.4,85,78.9,84.5,78.9,83.8z
		"/>
	<path class="st1" d="M84.3,83.6c0-0.6-0.6-1.2-1.2-1.2c-0.6,0-1.2,0.6-1.1,1.2c0,0.6,0.6,1.2,1.2,1.2
		C83.8,84.9,84.4,84.3,84.3,83.6z"/>
	<path class="st1" d="M87.4,83.6c0,0.6,0.6,1.2,1.2,1.2c0.6,0,1.2-0.6,1.2-1.2c0-0.6-0.6-1.2-1.2-1.2C87.9,82.4,87.4,82.9,87.4,83.6
		z"/>
	<path class="st1" d="M95.2,83.4c0-0.6-0.5-1.2-1.2-1.2c-0.6,0-1.2,0.6-1.2,1.2c0,0.6,0.6,1.2,1.2,1.2
		C94.7,84.6,95.2,84.1,95.2,83.4z"/>
	<path class="st1" d="M100.7,83.4c0-0.6-0.5-1.2-1.2-1.2c-0.6,0-1.2,0.6-1.2,1.2c0,0.6,0.5,1.2,1.2,1.2
		C100.1,84.6,100.7,84.1,100.7,83.4z"/>
	<path class="st1" d="M106.1,83.5c0-0.6-0.5-1.2-1.2-1.2c-0.6,0-1.2,0.5-1.2,1.2c0,0.6,0.5,1.2,1.2,1.2
		C105.5,84.7,106.1,84.1,106.1,83.5z"/>
	<path class="st1" d="M110.4,82.3c-0.6,0-1.2,0.5-1.2,1.2c0,0.6,0.5,1.2,1.2,1.2c0.6,0,1.2-0.5,1.2-1.2
		C111.5,82.9,111,82.4,110.4,82.3z"/>
	<path class="st1" d="M114.6,83.6c0,0.6,0.5,1.2,1.1,1.2c0.6,0,1.2-0.5,1.2-1.2c0-0.6-0.5-1.2-1.1-1.2
		C115.2,82.5,114.6,83,114.6,83.6z"/>
	<path class="st1" d="M121.3,82.7c-0.6,0-1.2,0.5-1.2,1.1c0,0.6,0.5,1.2,1.1,1.2c0.6,0,1.2-0.5,1.2-1.1
		C122.4,83.3,121.9,82.7,121.3,82.7z"/>
	<path class="st1" d="M125.5,84.1c0,0.6,0.5,1.2,1.1,1.3c0.6,0,1.2-0.5,1.2-1.1c0-0.6-0.5-1.2-1.1-1.3
		C126.1,82.9,125.5,83.4,125.5,84.1z"/>
	<path class="st1" d="M130.9,84.4c0,0.6,0.5,1.2,1.1,1.3c0.6,0,1.2-0.5,1.2-1.1c0-0.6-0.5-1.2-1.1-1.3
		C131.5,83.2,131,83.7,130.9,84.4z"/>
	<path class="st1" d="M137.4,86c0.6,0,1.2-0.5,1.3-1.1c0-0.6-0.5-1.2-1.1-1.3c-0.6,0-1.2,0.5-1.3,1.1C136.3,85.4,136.8,86,137.4,86z
		"/>
	<path class="st1" d="M144.1,85.4c0.1-0.6-0.4-1.2-1.1-1.3c-0.6-0.1-1.2,0.4-1.3,1.1c-0.1,0.6,0.4,1.2,1.1,1.3
		C143.5,86.5,144.1,86,144.1,85.4z"/>
	<path class="st1" d="M147.2,85.6c-0.1,0.6,0.4,1.2,1.1,1.3c0.6,0.1,1.2-0.4,1.3-1.1c0.1-0.6-0.4-1.2-1.1-1.3
		C147.8,84.5,147.3,85,147.2,85.6z"/>
	<path class="st1" d="M153.7,87.5c0.6,0.1,1.2-0.4,1.3-1.1c0.1-0.6-0.4-1.2-1.1-1.3c-0.6-0.1-1.2,0.4-1.3,1.1
		C152.6,86.8,153,87.4,153.7,87.5z"/>
	<path class="st1" d="M160.4,87c0.1-0.6-0.4-1.3-1-1.3c-0.6-0.1-1.2,0.4-1.3,1.1c-0.1,0.6,0.4,1.3,1,1.3
		C159.7,88.2,160.3,87.7,160.4,87z"/>
	<path class="st1" d="M164.8,86.4c-0.6-0.1-1.2,0.4-1.3,1c-0.1,0.6,0.4,1.3,1,1.3c0.6,0.1,1.2-0.4,1.3-1
		C165.9,87.1,165.4,86.5,164.8,86.4z"/>
	<path class="st1" d="M170.2,87.1c-0.6-0.1-1.2,0.4-1.3,1c-0.1,0.6,0.4,1.3,1,1.3c0.6,0.1,1.2-0.4,1.3-1
		C171.3,87.8,170.8,87.2,170.2,87.1z"/>
	<path class="st1" d="M175.6,87.9c-0.6-0.1-1.2,0.4-1.3,1c-0.1,0.6,0.4,1.3,1,1.4c0.6,0.1,1.2-0.4,1.3-1
		C176.7,88.6,176.2,88,175.6,87.9z"/>
	<path class="st1" d="M181,88.7c-0.6-0.1-1.2,0.4-1.3,1c-0.1,0.6,0.4,1.3,1,1.4c0.6,0.1,1.2-0.4,1.3-1
		C182.1,89.4,181.6,88.8,181,88.7z"/>
	<g>
		<g>
			<path d="M14,33.2c0.2,1.6,0.3,2.4,0.6,4c-2,0.3-3,0.4-5,0.7c0.7,4.9,1.1,7.3,1.8,12.2c1.7-0.3,2.6-0.4,4.3-0.6
				c0.2,1.6,0.3,2.4,0.6,4c-1.7,0.2-2.5,0.4-4.2,0.6c1.5,10.2,2.3,15.4,3.9,25.6c-1.6,0.2-2.4,0.4-4,0.6C9.4,65.1,7,49.8,4.6,34.6
				C8.3,34,10.2,33.7,14,33.2z"/>
			<path d="M22.3,32c1.8,14,3.6,28,5.4,42c3.2-0.4,4.8-0.6,8-1c0.2,1.6,0.3,2.4,0.5,4c-4.8,0.5-7.2,0.8-12,1.5
				c-2.1-15.3-4.1-30.7-6.2-46C19.7,32.3,20.5,32.2,22.3,32z"/>
			<path d="M44.7,76.1c-1,0.1-1.9,0-2.7-0.3c-0.8-0.3-1.4-0.7-1.9-1.2c-0.5-0.5-0.9-1-1.2-1.6c-0.3-0.6-0.5-1.2-0.6-1.7
				c-1.3-11.8-2.5-23.7-3.8-35.5c-0.1-0.5,0-1.1,0.2-1.7c0.2-0.6,0.5-1.2,0.9-1.8c0.4-0.6,1-1.1,1.8-1.5c0.8-0.4,1.7-0.7,2.9-0.8
				c1.1-0.1,2.1,0,2.9,0.2c0.8,0.3,1.5,0.7,2,1.2c0.5,0.5,0.9,1,1.2,1.6c0.3,0.6,0.4,1.1,0.5,1.7c1,11.9,2,23.7,3.1,35.6
				c0,0.1,0,0.3,0,0.5c0,0.3,0,0.6-0.1,0.9c-0.1,0.3-0.2,0.7-0.3,1.2c-0.2,0.4-0.4,0.9-0.7,1.2c-0.3,0.4-0.8,0.8-1.5,1.2
				C46.7,75.8,45.8,76,44.7,76.1z M42.4,70.9c0.2,1,0.8,1.4,1.9,1.3c0.2,0,0.4-0.1,0.7-0.2c0.3-0.1,0.5-0.2,0.7-0.4
				c0.1-0.2,0.2-0.4,0.2-0.6c0-0.2,0-0.3,0-0.4c-1.1-11.9-2.2-23.7-3.3-35.6c-0.1-0.3-0.2-0.5-0.3-0.7c-0.2-0.2-0.3-0.3-0.6-0.3
				c-0.2-0.1-0.4-0.1-0.6-0.1c-0.2,0-0.3,0-0.4,0c-0.1,0-0.3,0-0.5,0.1c-0.2,0-0.4,0.1-0.6,0.2c-0.2,0.1-0.4,0.2-0.5,0.4
				c-0.1,0.2-0.2,0.4-0.2,0.8C40,47.2,41.2,59,42.4,70.9z"/>
			<path d="M65.6,74.5c-0.7-1.3-1.5-2.8-2.3-4.8c-0.5,2-1,3.6-1.6,5c-1.4,0.1-2.2,0.1-3.6,0.2c-3-5.1-4.8-10.5-5.3-16.4
				c-0.8-9.8-1.6-19.7-2.3-29.5c1.8-0.1,2.6-0.2,4.4-0.3c0.7,9.8,1.4,19.7,2.1,29.5c0.2,3.2,1.1,6.6,2.5,10.1
				c0.9-3.7,1.3-7.2,1.1-10.4c1.7-0.1,2.5-0.2,4.2-0.3c0.2,3.2,1,6.6,2.3,10.2c1-3.7,1.4-7.2,1.2-10.4c-0.5-9.9-1-19.7-1.5-29.6
				c1.8-0.1,2.7-0.1,4.4-0.2c0.4,9.9,0.9,19.7,1.3,29.6c0.3,5.9-0.9,11.5-3.2,16.9C67.7,74.4,67,74.4,65.6,74.5z"/>
			<path d="M79.6,31.5c0.2,5,0.2,7.4,0.4,12.4c1.7-0.1,2.6-0.1,4.3-0.1c0,1.6,0.1,2.4,0.1,4c-1.7,0-2.6,0.1-4.3,0.1
				c0.3,8.8,0.4,13.1,0.7,21.9c1.9-0.1,2.8-0.1,4.7-0.1c0,1.6,0.1,2.4,0.1,4c-3.5,0.1-5.2,0.1-8.7,0.3c-0.6-15.5-1.2-30.9-1.8-46.4
				c3.8-0.1,5.7-0.2,9.5-0.3c0,1.6,0.1,2.4,0.1,4.1C82.6,31.4,81.6,31.5,79.6,31.5z"/>
			<path d="M94.8,27.2c2.1,0,3.7,0.6,4.9,1.9c0.9,1,1.4,2.2,1.4,3.5c-0.1,8.5-0.1,12.7-0.1,21.2c0,1.4-0.5,2.6-1.5,3.6
				c-0.6,0.5-1.2,0.9-2,1.2c0.6,0.5,1.1,0.9,1.6,1.3c1.2,1.2,1.8,2.9,1.8,5c0,3.4,0,5.2-0.1,8.6c-1.6,0-2.4,0-4,0c0-4,0-5.9,0-9.9
				c0-1.1-0.2-1.8-0.6-2.1c-0.8-0.7-1.7-1.4-3-2.2c0,5.7,0.1,8.5,0.1,14.2c-1.6,0-2.4,0-4.1,0c-0.2-15.5-0.5-30.9-0.7-46.4
				C91.1,27.2,92.3,27.2,94.8,27.2z M96.7,32.6c0-0.2-0.1-0.5-0.2-0.7c-0.3-0.4-0.8-0.6-1.6-0.6c-0.8,0-1.1,0-1.9,0
				c0.1,9.5,0.1,14.3,0.2,23.8c0.7,0,1.1,0,1.8,0c1.2,0,1.8-0.4,1.8-1.2C96.8,45.3,96.7,41.1,96.7,32.6z"/>
			<path d="M122.7,27.7c4.2,0.2,6.2,2.1,6,5.7c-0.6,12-1.3,23.9-1.9,35.9c-0.1,1.5-0.7,2.7-1.7,3.7c-0.6,0.6-1.4,1-2.3,1.3
				c-0.1,1.6-0.1,2.4-0.2,4c-1.6-0.1-2.5-0.1-4.1-0.2c0.1-1.6,0.1-2.4,0.2-4c-2.4-0.9-3.6-2.6-3.6-5.2c0.4-12,0.8-24,1.1-35.9
				C116.3,29.3,118.5,27.5,122.7,27.7z M119.2,68.8c0.1,1,0.6,1.5,1.7,1.5c1.1,0,1.7-0.4,1.8-1.2c0.5-12,1.1-23.9,1.6-35.9
				c0-0.9-0.6-1.4-1.8-1.5c-1.2-0.1-1.8,0.4-1.9,1.3C120.1,45,119.6,56.9,119.2,68.8z"/>
			<path d="M142.2,70c-0.1,1.5-0.7,2.7-1.8,3.6c-1.2,1-2.6,1.4-4.4,1.3c-1.9-0.1-3.3-0.9-4.3-2.1c-0.8-1-1.2-2.2-1.2-3.5
				c0.8-13.7,1.6-27.4,2.5-41c1.8,0.1,2.6,0.2,4.4,0.3c-0.9,13.6-1.8,27.3-2.7,40.9c0,0.9,0.6,1.4,1.7,1.5c0.6,0,1.1-0.1,1.4-0.3
				c0.3-0.2,0.4-0.5,0.4-0.8c1-13.7,2-27.3,3-41c1.8,0.1,2.6,0.2,4.4,0.3C144.4,42.8,143.3,56.4,142.2,70z"/>
			<path d="M153.5,33.9c-0.5,4.9-0.7,7.4-1.2,12.4c1.7,0.2,2.6,0.2,4.3,0.4c-0.2,1.6-0.2,2.4-0.4,4c-1.7-0.2-2.6-0.3-4.3-0.4
				c-0.8,8.7-1.2,13.1-2.1,21.8c1.9,0.2,2.8,0.3,4.7,0.5c-0.2,1.6-0.3,2.4-0.4,4c-3.5-0.4-5.2-0.5-8.7-0.8
				c1.4-15.4,2.7-30.8,4.1-46.2c3.8,0.3,5.7,0.5,9.5,0.9c-0.2,1.6-0.3,2.4-0.4,4.1C156.5,34.2,155.5,34.1,153.5,33.9z"/>
			<path d="M166.8,35.3c-0.6,4.9-0.9,7.4-1.5,12.3c1.7,0.2,2.6,0.3,4.3,0.5c-0.2,1.6-0.3,2.4-0.5,4c-1.7-0.2-2.5-0.3-4.2-0.5
				c-1,8.7-1.5,13-2.6,21.7c1.9,0.2,2.8,0.3,4.7,0.6c-0.2,1.6-0.3,2.4-0.5,4c-3.5-0.4-5.2-0.6-8.7-1c1.7-15.4,3.4-30.8,5.1-46.1
				c3.8,0.4,5.7,0.6,9.4,1.1c-0.2,1.6-0.3,2.4-0.5,4C169.8,35.7,168.8,35.6,166.8,35.3z"/>
			<path d="M180.7,33c-0.6,4.3-0.9,6.4-1.5,10.7c1.6,3.5,2.4,5.3,4,8.9c1.1-7.5,1.7-11.3,2.8-18.8c1.8,0.3,2.6,0.4,4.4,0.7
				c-2.4,15.3-4.8,30.6-7.3,45.8c-1.6-0.3-2.4-0.4-4-0.6c1.3-8.5,1.9-12.7,3.2-21.2c-1.6-3.5-2.3-5.3-4-8.8
				c-1.4,9.8-2.8,19.6-4.2,29.4c-1.6-0.2-2.5-0.3-4.1-0.6c2.1-15.3,4.1-30.7,6.2-46C178.1,32.7,179,32.8,180.7,33z"/>
		</g>
	</g>
</g>
<text transform="matrix(1 0 0 1 306 396)" style="font-family:'MyriadPro-Regular'; font-size:12px;">FLOWER QUEEN</text>
</svg>
