<svg width="24" height="24" viewBox="0 0 24 24" fill="none" xmlns="http://www.w3.org/2000/svg">
<path fill-rule="evenodd" clip-rule="evenodd" d="M11.6476 2.62308C14.7182 2.62308 15.0819 2.63488 16.2945 2.69074C17.4158 2.74242 18.0247 2.93159 18.43 3.09057C18.9667 3.30122 19.3499 3.5529 19.7523 3.95923C20.1547 4.36556 20.4039 4.75243 20.6125 5.29441C20.77 5.70364 20.9573 6.3185 21.0085 7.45064C21.0638 8.67515 21.0755 9.04239 21.0755 12.143C21.0755 15.2436 21.0638 15.6109 21.0085 16.8353C20.9573 17.9675 20.77 18.5824 20.6125 18.9916C20.4039 19.5336 20.1547 19.9205 19.7523 20.3268C19.3499 20.7331 18.9667 20.9848 18.43 21.1954C18.0247 21.3544 17.4158 21.5436 16.2945 21.5953C15.0821 21.6511 14.7184 21.6629 11.6476 21.6629C8.57675 21.6629 8.21306 21.6511 7.00062 21.5953C5.87938 21.5436 5.27046 21.3544 4.86523 21.1954C4.32844 20.9848 3.94531 20.7331 3.54291 20.3268C3.14051 19.9205 2.89126 19.5336 2.68269 18.9916C2.5252 18.5824 2.33786 17.9675 2.28668 16.8354C2.23136 15.6109 2.21967 15.2436 2.21967 12.143C2.21967 9.04239 2.23136 8.67515 2.28668 7.45069C2.33786 6.3185 2.5252 5.70364 2.68269 5.29441C2.89126 4.75243 3.14051 4.36556 3.54291 3.95923C3.94531 3.5529 4.32844 3.30122 4.86523 3.09057C5.27046 2.93159 5.87938 2.74242 7.00057 2.69074C8.21324 2.63488 8.57693 2.62308 11.6476 2.62308ZM11.6476 0.530762C8.52439 0.530762 8.13281 0.544129 6.90621 0.600642C5.68212 0.657062 4.84619 0.853334 4.11466 1.14041C3.35844 1.43717 2.71711 1.83423 2.07779 2.47979C1.43847 3.12535 1.04525 3.77294 0.751356 4.53655C0.467052 5.27522 0.272678 6.11931 0.216803 7.35534C0.160837 8.59386 0.147644 8.98931 0.147644 12.143C0.147644 15.2968 0.160837 15.6922 0.216803 16.9307C0.272678 18.1668 0.467052 19.0108 0.751356 19.7495C1.04525 20.5131 1.43847 21.1607 2.07779 21.8063C2.71711 22.4518 3.35844 22.8489 4.11466 23.1456C4.84619 23.4327 5.68212 23.629 6.90621 23.6854C8.13281 23.7419 8.52439 23.7553 11.6476 23.7553C14.7709 23.7553 15.1625 23.7419 16.389 23.6854C17.6131 23.629 18.4491 23.4327 19.1806 23.1456C19.9368 22.8489 20.5781 22.4518 21.2175 21.8063C21.8568 21.1607 22.25 20.5131 22.5439 19.7495C22.8282 19.0108 23.0226 18.1668 23.0784 16.9307C23.1344 15.6922 23.1476 15.2968 23.1476 12.143C23.1476 8.98931 23.1344 8.59386 23.0784 7.35534C23.0226 6.11931 22.8282 5.27522 22.5439 4.53655C22.25 3.77294 21.8568 3.12535 21.2175 2.47979C20.5781 1.83423 19.9368 1.43717 19.1806 1.14041C18.4491 0.853334 17.6131 0.657062 16.389 0.600642C15.1625 0.544129 14.7709 0.530762 11.6476 0.530762Z" fill="#D7CDDC"/>
<path fill-rule="evenodd" clip-rule="evenodd" d="M11.6477 6.20776C8.40149 6.20776 5.7699 8.86503 5.7699 12.1429C5.7699 15.4208 8.40149 18.0781 11.6477 18.0781C14.8939 18.0781 17.5255 15.4208 17.5255 12.1429C17.5255 8.86503 14.8939 6.20776 11.6477 6.20776ZM11.6476 15.9958C9.54041 15.9958 7.83217 14.2709 7.83217 12.1432C7.83217 10.0154 9.54041 8.29052 11.6476 8.29052C13.7547 8.29052 15.463 10.0154 15.463 12.1432C15.463 14.2709 13.7547 15.9958 11.6476 15.9958Z" fill="#D7CDDC"/>
<path fill-rule="evenodd" clip-rule="evenodd" d="M19.0586 5.94965C19.0586 6.66224 18.4866 7.23992 17.7809 7.23992C17.0752 7.23992 16.5031 6.66224 16.5031 5.94965C16.5031 5.23706 17.0752 4.65942 17.7809 4.65942C18.4866 4.65942 19.0586 5.23706 19.0586 5.94965Z" fill="#D7CDDC"/>
</svg>
